<svg width="32" height="32" viewBox="0 0 32 32" fill="none"
  xmlns="http://www.w3.org/2000/svg">
  <path d="M29.0855 14.0406C29.3718 13.0045 29.4308 11.916 29.2596 10.854C29.0885 9.79203 28.6913 8.78128 28.0939 7.89656C27.4964 7.01184 26.7136 6.27309 25.8011 5.73235C24.8886 5.19161 23.8665 4.86284 22.8131 4.77104C21.7598 4.67924 20.699 4.82747 19.7046 5.20542C18.7101 5.58338 17.807 6.1818 17.0617 6.95896C16.3164 7.73613 15.748 8.67076 15.3975 9.689C15.047 10.7073 14.9231 11.799 15.0342 12.8798C13.1545 13.347 11.5314 14.581 10.5428 16.2918C9.55416 18.0026 9.28042 20.0352 9.78981 21.9407C10.2992 23.8462 11.5518 25.4601 13.2742 26.4365C14.9966 27.4129 17.0319 27.6731 18.9312 27.1524C20.0474 27.9586 21.3764 28.3926 22.7369 28.3953C24.5678 28.3953 26.324 27.6636 27.6209 26.3557C28.9178 25.0477 29.6425 23.2757 29.6398 21.4284C29.642 19.9778 29.2044 18.5601 28.3804 17.3558C27.5564 16.1514 26.3829 15.2183 25.0059 14.6726C26.0548 14.0959 27.1708 13.7519 28.3113 13.6599C28.576 13.7695 28.8369 13.8928 29.0915 14.0287L29.0855 14.0406ZM16.0075 25.1168C14.833 25.117 13.6875 24.7487 12.7351 24.0675C11.7827 23.3863 11.0696 22.4268 10.6992 21.3191C10.3288 20.2114 10.3206 19.0094 10.6757 17.8972C11.0309 16.785 11.7308 15.8169 12.6736 15.1245C12.9165 15.3465 13.1804 15.5473 13.4619 15.7243C13.7433 15.9014 14.0409 16.0537 14.3496 16.1788C14.2089 16.4842 14.1208 16.8083 14.0888 17.1394C14.0568 17.4704 14.0815 17.8045 14.1618 18.1267C14.242 18.4489 14.3765 18.7538 14.5587 19.0266C14.7409 19.2995 14.9678 19.5358 15.2283 19.724C15.4889 19.9122 15.7787 20.0491 16.0845 20.1279C16.3903 20.2067 16.7068 20.2262 17.0193 20.1853C17.3318 20.1444 17.6343 20.0438 17.9116 19.8883C18.1888 19.7328 18.4359 19.5252 18.6401 19.276C18.8444 19.0268 19.0022 18.7404 19.1055 18.4327C19.2088 18.125 19.2554 17.8011 19.2432 17.4767C19.2309 17.1523 19.16 16.8334 19.0345 16.5347C18.9089 16.236 18.7309 15.9631 18.5096 15.7313C18.2882 15.4996 18.0272 15.3128 17.7404 15.1803C17.4536 15.0478 17.1456 14.9717 16.834 14.9556C17.0131 14.3747 17.0502 13.7603 16.9428 13.1623C16.8355 12.5643 16.5863 12.0002 16.2148 11.5159C15.8434 11.0317 15.3613 10.6413 14.8103 10.3756C14.2594 10.1098 13.6552 9.97643 13.0459 9.98635C12.4367 9.99627 11.8374 10.149 11.2959 10.4335C10.7543 10.718 10.2854 11.1249 9.93009 11.6213C9.5748 12.1177 9.34443 12.6885 9.25642 13.2882C9.16841 13.8879 9.2254 14.5
994 9.42306 15.274C9.18462 15.3906 8.9561 15.5282 8.74053 15.685C7.89271 16.3021 7.2322 17.153 6.83037 18.1356C6.42854 19.1183 6.30223 20.1945 6.46641 21.247C6.63058 22.2995 7.07858 23.2855 7.76287 24.0954C8.44717 24.9053 9.34246 25.5083 10.3509 25.834C11.3594 26.1597 12.4433 26.1956 13.4708 25.9376C14.4983 25.6796 15.431 25.1384 16.1675 24.3741C16.904 23.6098 17.4131 22.6532 17.6403 21.6099C17.8675 20.5667 17.8039 19.4774 17.4562 18.4673C17.6375 18.4434 17.8128 18.3882 17.9748 18.3042C18.1368 18.2202 18.2827 18.1089 18.4057 17.9755C18.5285 17.8432 18.6274 17.6912 18.6977 17.5263C18.7681 17.3614 18.8088 17.186 18.8183 17.0071C18.8278 16.8282 18.8058 16.6491 18.7535 16.4779C18.7011 16.3068 18.6193 16.1465 18.5118 16.0041C18.4043 15.8618 18.2731 15.7398 18.1248 15.6439C17.9764 15.548 17.8134 15.4798 17.6434 15.4425C18.1078 14.5655 18.2656 13.5547 18.0896 12.5746C17.9137 11.5945 17.4148 10.7001 16.6753 10.0455C15.9358 9.39094 15.0015 9.01649 14.0254 8.98935C13.0493 8.96221 12.0972 9.28401 11.3245 9.89801C10.9551 8.72699 10.1787 7.73339 9.14223 7.08358C8.10577 6.43376 6.87963 6.17226 5.68356 6.34574C4.4875 6.51923 3.39975 7.11408 2.62438 8.01686C1.84902 8.91964 1.44126 10.0654 1.47474 11.2395C1.50822 12.4137 1.98068 13.5362 2.8099 14.3977C3.63913 15.2591 4.7595 15.7958 5.93647 15.9063C6.15063 16.9772 6.62461 17.9765 7.3205 18.8127C8.0164 19.6489 8.9096 20.2957 9.91572 20.6943C10.9218 21.0929 12.0131 21.2308 13.0884 21.0944C14.1637 20.9581 15.183 20.5517 16.0493 19.9148L16.0015 19.9803C16.0015 19.9803 16.0075 25.1168 16.0075 25.1168Z" fill="#000000"/>
</svg> 